PathFileType	4	(X/Y/Z)	Run_400 02
DataRate	CameraRate	NumFrames	NumMarkers	Units	OrigDataRate	OrigDataStartFrame	OrigNumFrames
100	100	4	42	mm	100	151	128
Frame#	Time	LPSI			RPSI			RTH2			RTH3			LTH1			LTH2			LTH3			RTB1			RTB2			LTB1			LTB2			RCAL			RTOE			RMT5			LCAL			LTOE			LMT5			LACR			RACR			CLAV			C7			RUA1			RUA2			RUA3			RLEL			LUA1			LUA2			LUA3			LLEL			LMEL			RFAsuperior			RFAulna			LFAsuperior			LFAradius			LFAulna			RASI			RTB3			LTB3			RMEL			RFAradius			RTH1			LASI			
		X1	Y1	Z1	X2	Y2	Z2	X3	Y3	Z3	X4	Y4	Z4	X5	Y5	Z5	X6	Y6	Z6	X7	Y7	Z7	X8	Y8	Z8	X9	Y9	Z9	X10	Y10	Z10	X11	Y11	Z11	X12	Y12	Z12	X13	Y13	Z13	X14	Y14	Z14	X15	Y15	Z15	X16	Y16	Z16	X17	Y17	Z17	X18	Y18	Z18	X19	Y19	Z19	X20	Y20	Z20	X21	Y21	Z21	X22	Y22	Z22	X23	Y23	Z23	X24	Y24	Z24	X25	Y25	Z25	X26	Y26	Z26	X27	Y27	Z27	X28	Y28	Z28	X29	Y29	Z29	X30	Y30	Z30	X31	Y31	Z31	X32	Y32	Z32	X33	Y33	Z33	X34	Y34	Z34	X35	Y35	Z35	X36	Y36	Z36	X37	Y37	Z37	X38	Y38	Z38	X39	Y39	Z39	X40	Y40	Z40	X41	Y41	Z41	X42	Y42	Z42	

129	2.15	856.473198	1135.329522	-418.491833	836.786076	1138.315834	-305.759932	954.602978	824.326335	-196.451602	1072.708429	721.928726	-200.63576	920.0931440000001	932.450796	-519.450578	778.782738	834.01536	-475.007058	760.5499119999999	692.023802	-465.748741	1166.609943	483.330142	-258.945799	1079.054112	448.276217	-193.500131	674.758192	472.505148	-398.389025	544.421553	443.07487	-454.895758	975.556603	181.262084	-276.470275	1216.416671	150.393285	-292.867911	1166.030745	124.818768	-203.647677	361.413012	336.588968	-387.789984	425.164614	113.815185	-335.736254	368.231595	123.103285	-431.164127	989.338543	1564.319505	-508.970961	945.944665	1553.166021	-193.937677	1025.104575	1516.759536	-307.509607	912.3575039999999	1580.051912	-364.802094	805.463886	1508.972782	-169.343113	814.062001	1449.734365	-113.739735	713.1503729999999	1417.745403	-95.43283599999999	653.838338	1377.226471	-78.963274	905.069941	1465.588128	-579.822831	939.593588	1391.980299	-600.250868	871.538425	1326.834098	-636.967307	862.374942	1258.354382	-657.7726290000001	834.376624	1234.569706	-571.287538	716.269891	1291.957003	-53.046393	814.617873	1162.130881	-66.11436999999999	938.830835	1239.711105	-630.517368	1064.969543	1315.704443	-515.424603	1092.521586	1250.77751	-533.857239	984.590384	1080.3412	-216.826879	1111.506624	302.197191	-273.257361	515.199432	323.34708	-395.502198	665.8185999999999	1340.955579	-161.533903	866.762917	1197.003343	-93.85850600000001	926.744107	976.034173	-160.299567	1007.012392	1079.025557	-503.148585	
130	2.16	857.4824589999999	1137.074121	-418.992113	837.525776	1139.241786	-305.808325	950.972715	823.207023	-196.213071	1066.903887	717.790223	-200.174385	923.946531	934.12323	-519.146927	782.476909	836.0937249999999	-475.695977	764.1836070000001	693.401624	-465.443143	1171.623636	481.244246	-260.913194	1089.093853	437.026291	-194.826383	670.035869	477.079697	-396.195377	540.924036	452.12995	-458.104846	1012.068993	162.472071	-280.485336	1253.356418	154.915707	-302.107307	1208.47463	121.444243	-213.115834	348.906769	357.189317	-397.685442	400.409447	133.541126	-336.406282	348.747846	142.106188	-434.330717	990.858693	1566.402437	-508.059485	945.141286	1554.450544	-193.179678	1024.80267	1518.27663	-306.472104	912.709428	1581.712421	-364.41912	803.957989	1511.034488	-171.130245	812.005385	1451.756998	-115.018197	710.283173	1420.633552	-98.528417	651.106128	1379.187991	-82.749402	907.6129979999999	1468.366128	-580.203115	941.942505	1394.924743	-600.418759	873.9972739999999	1330.289894	-638.53841	864.8043259999999	1261.634795	-659.524681	835.771303	1237.880883	-573.828807	713.873136	1294.418813	-55.837409	814.08411	1165.504459	-68.078473	940.906206	1243.450756	-630.850762	1064.640889	1320.336302	-513.769509	1092.388847	1255.129151	-530.6345679999999	984.3025709999999	1081.78604	-217.415726	1134.824117	295.837191	-276.887002	502.599685	336.339618	-397.310719	664.454749	1342.645189	-164.896404	866.1679820000001	1201.461544	-94.35494	925.837524	974.815438	-161.382887	1008.053788	1080.780605	-503.491753	
131	2.17	858.080181	1137.643136	-419.686996	837.7581249999999	1138.800514	-306.152828	947.338207	821.491754	-195.218133	1059.506736	712.1511389999999	-199.685116	928.707884	933.865803	-518.198517	787.360426	835.1419079999999	-476.92956	770.730903	691.489143	-465.079786	1173.862817	478.531271	-262.688578	1096.003254	426.739925	-196.592566	667.248685	479.500118	-394.269112	538.978692	460.988355	-460.966283	1045.04756	146.74818	-283.66913	1284.185344	163.763538	-313.45187	1246.214494	121.042059	-223.386452	335.646161	378.221618	-406.896109	379.091666	155.545401	-336.888492	333.014838	162.388458	-437.853078	992.023999	1567.568273	-506.997687	944.804933	1554.733539	-192.154494	1024.681434	1518.922185	-305.414853	913.2049050000001	1582.617586	-363.636717	803.085901	1511.460895	-171.899583	810.913445	1452.038225	-115.73512	708.562441	1421.604441	-101.059263	649.548851	1379.218124	-85.827944	909.805732	1470.060105	-580.4135199999999	943.981086	1396.717075	-600.413317	876.264923	1332.46993	-639.805218	866.754349	1263.862691	-661.003206	836.383826	1240.347419	-575.964567	712.954132	1295.008018	-58.069857	815.0083969999999	1167.127725	-69.395307	942.3846140000001	1245.277402	-631.085526	1064.507526	1321.692524	-511.898823	1091.782454	1256.132678	-527.775942	983.853163	1082.799891	-217.954467	1154.310803	290.850323	-280.099458	490.933923	349.933934	-399.114079	664.265565	1342.403817	-167.516381	866.77057	1203.989523	-94.97826499999999	925.04855	973.217449	-162.246314	1008.683643	1081.360135	-504.029493	
132	2.18	858.476326	1136.835445	-420.56998	837.630766	1137.152885	-307.026137	943.579292	819.260308	-194.529464	1050.594172	705.446235	-199.618477	933.9152319999999	931.881159	-516.850778	793.089436	831.739697	-478.248836	779.123149	687.144423	-464.318333	1173.861714	475.523369	-264.465533	1099.86827	417.882644	-198.88196	666.747796	479.913447	-393.555928	538.55111	470.331551	-463.340324	1072.743122	134.36202	-285.918863	1307.707869	174.498682	-324.994562	1277.371429	123.490775	-233.647835	324.930389	400.108917	-414.899272	361.286586	178.332225	-338.452243	319.060819	183.926573	-441.890346	992.812294	1567.93261	-505.683734	944.881666	1553.984963	-190.97474	1024.774585	1518.644857	-304.311002	913.779521	1582.706035	-362.46956	802.8105420000001	1510.336463	-171.667576	810.669792	1450.689194	-115.876527	707.992292	1420.512184	-102.732865	649.175356	1377.283271	-87.938496	911.277751	1470.840265	-580.162618	945.461827	1397.617278	-600.258947	878.122661	1333.591994	-640.7211	868.167022	1265.203898	-662.2544830000001	835.993158	1242.066604	-577.5731039999999	713.551417	1293.755409	-59.622817	817.349572	1166.981241	-70.13538699999999	943.184589	1245.335849	-631.233808	1064.482151	1319.78565	-509.7561	1090.822855	1253.845642	-525.477522	983.465283	1083.453703	-218.488143	1169.415924	287.227617	-282.996659	481.488365	363.651282	-401.821495	665.096495	1340.270944	-169.254715	868.595641	1204.602274	-95.715946	924.779851	972.033129	-162.711711	1009.111923	1080.563005	-504.755328	
